<svg width="16" height="13" viewBox="0 0 16 13" fill="none" xmlns="http://www.w3.org/2000/svg">
<g clip-path="url(#clip0_6_331)">
<mask id="mask0_6_331" style="mask-type:luminance" maskUnits="userSpaceOnUse" x="0" y="0" width="16" height="13">
<path d="M16 0H0V12.3429H16V0Z" fill="white"/>
</mask>
<g mask="url(#mask0_6_331)">
<path d="M13.5447 1.09915C12.5249 0.633171 11.4313 0.289861 10.2879 0.0932321C10.2671 0.0894372 10.2463 0.0989208 10.2356 0.117888C10.0949 0.366992 9.93915 0.691968 9.83006 0.947398C8.60027 0.764051 7.37679 0.764051 6.17221 0.947398C6.0631 0.686291 5.90166 0.366992 5.76038 0.117888C5.74966 0.0995536 5.72886 0.09007 5.70803 0.0932321C4.56527 0.289232 3.47171 0.632543 2.45129 1.09915C2.44246 1.10294 2.43488 1.10927 2.42986 1.11748C0.355594 4.20351 -0.212633 7.21369 0.0661201 10.1865C0.0673814 10.2011 0.0755799 10.215 0.086932 10.2238C1.45547 11.2247 2.78114 11.8323 4.08219 12.235C4.10301 12.2414 4.12507 12.2338 4.13832 12.2167C4.44608 11.7982 4.72043 11.3568 4.95565 10.8928C4.96953 10.8656 4.95628 10.8333 4.92791 10.8226C4.49275 10.6582 4.0784 10.4578 3.67982 10.2302C3.64829 10.2118 3.64577 10.1669 3.67477 10.1454C3.75865 10.0828 3.84255 10.0177 3.92264 9.95196C3.93713 9.93996 3.95732 9.93742 3.97435 9.94501C6.59286 11.1356 9.4277 11.1356 12.0153 9.94501C12.0323 9.93679 12.0525 9.93933 12.0677 9.95133C12.1478 10.0171 12.2316 10.0828 12.3161 10.1454C12.3451 10.1669 12.3433 10.2118 12.3117 10.2302C11.9131 10.4622 11.4988 10.6582 11.063 10.822C11.0346 10.8327 11.022 10.8656 11.0359 10.8928C11.2762 11.3562 11.5505 11.7975 11.8526 12.2161C11.8652 12.2338 11.8879 12.2414 11.9087 12.235C13.2161 11.8323 14.5417 11.2247 15.9103 10.2238C15.9223 10.215 15.9298 10.2017 15.9311 10.1872C16.2647 6.75023 15.3723 3.76473 13.5655 1.11811C13.5611 1.10927 13.5535 1.10294 13.5447 1.09915ZM5.34668 8.37638C4.55833 8.37638 3.90876 7.65563 3.90876 6.77047C3.90876 5.8853 4.54574 5.16455 5.34668 5.16455C6.15392 5.16455 6.79721 5.89163 6.78459 6.77047C6.78459 7.65563 6.14761 8.37638 5.34668 8.37638ZM10.6632 8.37638C9.87484 8.37638 9.22526 7.65563 9.22526 6.77047C9.22526 5.8853 9.86222 5.16455 10.6632 5.16455C11.4704 5.16455 12.1137 5.89163 12.1011 6.77047C12.1011 7.65563 11.4704 8.37638 10.6632 8.37638Z" fill="white"/>
</g>
</g>
<defs>
<clipPath id="clip0_6_331">
<rect width="16" height="12.3429" fill="white"/>
</clipPath>
</defs>
</svg>
