<svg width="16" height="16" viewBox="0 0 16 16" fill="none" xmlns="http://www.w3.org/2000/svg">
<g clip-path="url(#clip0_6_347)">
<path d="M12.958 3.96045C12.0175 5.07745 10.8135 5.94295 9.44051 6.46495L9.38151 6.48445C9.53151 6.79045 9.67501 7.09995 9.80651 7.41295C9.85651 7.52545 9.90001 7.63795 9.94401 7.74395C10.4075 7.69295 10.9455 7.66395 11.49 7.66395C12.5215 7.66395 13.5285 7.76795 14.5015 7.96645L14.405 7.94995C14.395 6.42995 13.8515 5.03945 12.953 3.95295L12.9615 3.96345L12.958 3.96045ZM6.50051 1.78445C7.29801 2.85945 8.08851 4.08445 8.79951 5.35995L8.88851 5.53345C10.2445 5.07945 11.383 4.27795 12.2355 3.23345L12.246 3.22045C11.1225 2.21745 9.63201 1.60445 7.99901 1.60445C7.46751 1.60445 6.95101 1.66945 6.45701 1.79195L6.50101 1.78295L6.50051 1.78445ZM1.73001 6.69745C3.83951 6.68645 5.87751 6.40245 7.81801 5.87945L7.65151 5.91745C6.82551 4.46795 6.04051 3.25845 5.19551 2.09545L5.27701 2.21345C3.47901 3.07395 2.16351 4.69645 1.73851 6.65095L1.73101 6.69345L1.73001 6.69745ZM3.24201 12.2925C4.45201 10.3515 6.24701 8.87295 8.37751 8.08845L8.44801 8.06595C8.53251 8.03795 8.61651 8.01345 8.70101 7.99095C8.53851 7.62545 8.36351 7.26195 8.18101 6.90395C6.23701 7.48095 4.00351 7.81345 1.69251 7.81345C1.65951 7.81345 1.62701 7.81345 1.59451 7.81345H1.59951L1.59701 8.00845C1.59701 8.00995 1.59701 8.01145 1.59701 8.01295C1.59701 9.66145 2.22201 11.164 3.24751 12.297L3.24251 12.2915L3.24201 12.2925ZM10.5025 13.9045C10.1615 12.055 9.68751 10.426 9.07101 8.86945L9.13401 9.04995L9.09301 9.06245C6.93601 9.73545 5.18001 11.1585 4.09201 13.02L4.06951 13.0615C5.14201 13.9055 6.51201 14.415 8.00101 14.415C8.90351 14.415 9.76201 14.228 10.54 13.8905L10.4985 13.9065L10.5025 13.9045ZM14.323 9.02595C13.5375 8.78895 12.635 8.65245 11.7005 8.65245C11.2185 8.65245 10.745 8.68895 10.2825 8.75895L10.3345 8.75245C10.8245 10.0345 11.2555 11.567 11.5525 13.147L11.5795 13.319C13.0165 12.339 14.026 10.8225 14.3205 9.06395L14.3255 9.02645L14.323 9.02595ZM8.00001 15.498C3.85901 15.498 0.502014 12.141 0.502014 7.99995C0.502014 3.85895 3.85901 0.501953 8.00001 0.501953C12.141 0.501953 15.498 3.85895 15.498 7.99995C15.4925 12.1385 12.1385 15.492 8.00001 15.498Z" fill="white"/>
</g>
<defs>
<clipPath id="clip0_6_347">
<rect width="16" height="16" fill="white"/>
</clipPath>
</defs>
</svg>
