<svg width="16" height="15" viewBox="0 0 16 15" fill="none" xmlns="http://www.w3.org/2000/svg">
<g clip-path="url(#clip0_6_342)">
<path d="M3.53123 4.69165H0.412476V14.6286H3.53123V4.69165Z" fill="white"/>
<path d="M1.90625 0C0.75625 0 0 0.740452 0 1.72357C0 2.68802 0.73125 3.44714 1.8625 3.44714H1.8875C3.0625 3.44714 3.79375 2.6818 3.7875 1.72357C3.7625 0.740452 3.05625 0 1.90625 0Z" fill="white"/>
<path d="M12.05 4.59827C10.2625 4.59827 9.14377 5.56894 8.93752 6.25339V4.6916H5.43127C5.47502 5.51916 5.43127 14.6286 5.43127 14.6286H8.93752V9.25875C8.93752 8.95386 8.92502 8.65519 9.01252 8.44363C9.25002 7.8463 9.76877 7.22407 10.7 7.22407C11.9188 7.22407 12.4688 8.14496 12.4688 9.48898V14.6286H16.0063V9.1032C16.0063 6.02939 14.2688 4.59827 12.05 4.59827Z" fill="white"/>
</g>
<defs>
<clipPath id="clip0_6_342">
<rect width="16" height="14.6286" fill="white"/>
</clipPath>
</defs>
</svg>
