<svg width="16" height="16" viewBox="0 0 16 16" fill="none" xmlns="http://www.w3.org/2000/svg">
<path d="M11.7948 7.41569C11.7258 7.38266 11.6558 7.35087 11.5849 7.32043C11.4614 5.04485 10.218 3.74208 8.13017 3.72875C8.12071 3.72869 8.1113 3.72869 8.10184 3.72869C6.85304 3.72869 5.81444 4.26174 5.17518 5.23173L6.32343 6.0194C6.80098 5.29486 7.55044 5.1404 8.10239 5.1404C8.10877 5.1404 8.11517 5.1404 8.12148 5.14046C8.80893 5.14484 9.32768 5.34472 9.66343 5.7345C9.90776 6.01828 10.0712 6.41042 10.1521 6.90532C9.54259 6.80173 8.88343 6.76988 8.17876 6.81028C6.19374 6.92462 4.9176 8.08232 5.00331 9.691C5.0468 10.507 5.45332 11.209 6.14793 11.6676C6.73521 12.0553 7.49159 12.2448 8.2777 12.2019C9.31584 12.145 10.1303 11.7489 10.6984 11.0247C11.1299 10.4747 11.4028 9.76192 11.5233 8.86383C12.0181 9.16242 12.3848 9.55533 12.5873 10.0277C12.9316 10.8306 12.9517 12.15 11.8751 13.2257C10.9318 14.168 9.79801 14.5757 8.08447 14.5883C6.18369 14.5742 4.74616 13.9646 3.81152 12.7764C2.9363 11.6638 2.48399 10.0568 2.46711 8C2.48399 5.94315 2.9363 4.33613 3.81152 3.22356C4.74616 2.03541 6.18367 1.42583 8.08444 1.41171C9.99901 1.42594 11.4616 2.03845 12.432 3.23233C12.9078 3.8178 13.2666 4.55407 13.5031 5.41253L14.8487 5.05352C14.562 3.99685 14.1109 3.08631 13.4971 2.33117C12.253 0.800557 10.4335 0.0162623 8.08914 0H8.07975C5.74014 0.0162058 3.94102 0.803483 2.73237 2.33994C1.65684 3.7072 1.10204 5.60964 1.0834 7.99438L1.08334 8L1.0834 8.00562C1.10204 10.3903 1.65684 12.2928 2.73237 13.6601C3.94102 15.1965 5.74014 15.9838 8.07975 16H8.08914C10.1692 15.9856 11.6353 15.441 12.8432 14.2343C14.4234 12.6555 14.3758 10.6766 13.855 9.46175C13.4813 8.59058 12.7689 7.88302 11.7948 7.41569ZM8.20339 10.7923C7.33339 10.8413 6.42954 10.4508 6.38498 9.61433C6.35194 8.99417 6.82633 8.30217 8.25678 8.21973C8.42059 8.21028 8.58134 8.20567 8.73926 8.20567C9.25884 8.20567 9.74493 8.25614 10.1868 8.35275C10.022 10.4113 9.05518 10.7455 8.20339 10.7923Z" fill="white"/>
</svg>
